<svg xmlns="http://www.w3.org/2000/svg" xmlns:xlink="http://www.w3.org/1999/xlink" width="60px" height="69px">
    <path fill-rule="evenodd"  fill="rgb(32, 170, 151)" d="M57.082,58.392 C58.039,59.682 57.867,61.672 56.585,62.940 L53.864,65.631 C52.682,66.800 50.656,67.019 49.237,66.107 C48.946,67.742 47.429,68.998 45.628,68.998 L41.811,68.998 C40.023,68.998 38.518,67.781 38.172,66.118 C36.870,66.996 34.765,66.809 33.574,65.631 L33.508,65.565 C33.442,65.575 33.383,65.604 33.314,65.604 L2.773,65.604 C1.297,65.601 0.002,64.320 0.002,62.861 L0.002,2.735 C0.001,2.056 0.312,1.356 0.856,0.817 C1.392,0.286 2.073,-0.007 2.773,-0.007 L33.904,-0.007 C34.579,0.036 35.325,0.270 35.843,0.765 L49.200,13.978 C49.718,14.483 50.017,15.198 50.017,15.934 L50.017,39.302 C51.261,38.845 52.808,39.132 53.864,40.177 L56.575,42.857 C57.841,44.060 58.029,45.976 57.064,47.446 C58.717,47.731 59.989,49.233 59.989,51.016 L59.989,54.792 C59.989,56.559 58.761,58.048 57.082,58.392 ZM34.496,3.038 L34.496,14.705 L46.290,14.705 L34.496,3.038 ZM47.439,17.255 L33.207,17.255 C32.494,17.255 31.918,16.684 31.918,15.980 L31.918,2.544 L2.773,2.544 C2.721,2.560 2.597,2.694 2.577,2.774 L2.580,62.861 C2.583,62.927 2.708,63.052 2.775,63.053 L30.970,63.053 L30.855,62.940 C29.624,61.660 29.452,59.792 30.376,58.363 C28.722,58.077 27.450,56.574 27.450,54.792 L27.450,51.016 C27.450,49.250 28.677,47.761 30.358,47.416 C29.400,46.125 29.573,44.136 30.855,42.868 L33.574,40.177 C34.871,38.959 36.762,38.790 38.202,39.705 C38.489,38.068 40.007,36.809 41.811,36.809 L45.628,36.809 C46.284,36.809 46.902,36.976 47.439,37.266 L47.439,17.255 ZM57.410,51.016 C57.410,50.450 57.025,49.998 56.497,49.941 L54.624,49.626 C54.188,49.553 53.822,49.265 53.650,48.863 C53.480,48.459 53.530,47.998 53.783,47.641 L54.791,46.209 C55.204,45.682 55.185,45.069 54.786,44.694 C54.777,44.687 54.770,44.679 54.762,44.671 L52.042,41.981 C51.644,41.588 51.043,41.524 50.673,41.834 L49.091,42.945 C48.729,43.198 48.264,43.249 47.855,43.082 C47.447,42.915 47.152,42.553 47.077,42.122 L46.771,40.387 C46.700,39.757 46.224,39.360 45.628,39.360 L41.811,39.360 C41.240,39.360 40.783,39.740 40.725,40.265 L40.406,42.118 C40.332,42.549 40.041,42.911 39.633,43.079 C39.227,43.249 38.762,43.200 38.398,42.950 L36.951,41.951 C36.442,41.564 35.799,41.601 35.373,42.004 L32.678,44.671 C32.280,45.064 32.215,45.659 32.528,46.025 L33.652,47.590 C33.908,47.948 33.960,48.408 33.792,48.813 C33.623,49.216 33.257,49.506 32.823,49.582 L31.068,49.887 C30.430,49.956 30.028,50.427 30.028,51.016 L30.028,54.792 C30.028,55.357 30.414,55.809 30.945,55.867 L32.817,56.180 C33.251,56.254 33.618,56.543 33.788,56.945 C33.960,57.348 33.910,57.809 33.657,58.168 L32.648,59.600 C32.258,60.103 32.295,60.738 32.701,61.159 L35.397,63.828 C35.767,64.194 36.543,64.169 36.752,63.986 C36.786,63.957 36.821,63.930 36.857,63.903 L38.349,62.863 C38.569,62.709 38.830,62.630 39.092,62.630 C39.258,62.630 39.425,62.662 39.584,62.726 C39.992,62.893 40.285,63.255 40.362,63.684 L40.669,65.419 C40.740,66.051 41.215,66.448 41.811,66.448 L45.628,66.448 C46.199,66.448 46.656,66.067 46.715,65.541 L47.034,63.691 C47.108,63.260 47.399,62.897 47.805,62.728 C48.214,62.560 48.679,62.608 49.041,62.859 L50.488,63.856 C51.081,64.316 51.668,64.199 52.042,63.828 L54.762,61.136 C55.160,60.743 55.224,60.149 54.911,59.783 L53.786,58.216 C53.532,57.860 53.480,57.398 53.649,56.995 C53.816,56.591 54.183,56.301 54.617,56.225 L56.372,55.921 C57.010,55.851 57.410,55.381 57.410,54.792 L57.410,51.016 ZM44.271,60.241 C40.181,60.241 36.854,56.950 36.854,52.904 C36.854,48.858 40.181,45.566 44.271,45.566 C48.361,45.566 51.688,48.858 51.688,52.904 C51.688,56.950 48.361,60.241 44.271,60.241 ZM44.271,48.117 C41.602,48.117 39.432,50.264 39.432,52.904 C39.432,55.544 41.602,57.691 44.271,57.691 C46.939,57.691 49.110,55.544 49.110,52.904 C49.110,50.264 46.939,48.117 44.271,48.117 ZM32.658,34.219 L13.724,34.219 C13.011,34.219 12.435,33.648 12.435,32.944 C12.435,32.240 13.011,31.668 13.724,31.668 L32.658,31.668 C33.370,31.668 33.947,32.240 33.947,32.944 C33.947,33.648 33.370,34.219 32.658,34.219 ZM31.574,26.307 L10.477,26.307 C9.765,26.307 9.188,25.736 9.188,25.031 C9.188,24.327 9.765,23.756 10.477,23.756 L31.574,23.756 C32.287,23.756 32.863,24.327 32.863,25.031 C32.863,25.736 32.287,26.307 31.574,26.307 ZM25.009,19.750 L16.723,19.750 C16.011,19.750 15.434,19.178 15.434,18.474 C15.434,17.770 16.011,17.199 16.723,17.199 L25.009,17.199 C25.722,17.199 26.298,17.770 26.298,18.474 C26.298,19.178 25.722,19.750 25.009,19.750 ZM23.117,40.243 C23.830,40.243 24.406,40.813 24.406,41.518 C24.406,42.222 23.830,42.793 23.117,42.793 L9.487,42.793 C8.774,42.793 8.197,42.222 8.197,41.518 C8.197,40.813 8.774,40.243 9.487,40.243 L23.117,40.243 Z"/>
</svg>